<svg xmlns="http://www.w3.org/2000/svg" xmlns:xlink="http://www.w3.org/1999/xlink" width="106" height="44" version="1.1" style=""><rect id="backgroundrect" width="100%" height="100%" x="0" y="0" fill="none" stroke="none"/>
    <!-- Generator: Sketch 44.1 (41455) - http://www.bohemiancoding.com/sketch -->
    <title>radio_big</title>
    <desc>Created with Sketch.</desc>
    <defs>
        <polygon id="path-1" points="105.783595 40.3073887 105.783595 0 0 5.34211039e-15 0 40.3073887"/>
    </defs>
    
<g class="currentLayer" style=""><title>Layer 1</title><g id="Page-1" stroke="#ffffff" stroke-width="1" fill="#ffffff" fill-rule="evenodd" class="selected" stroke-opacity="1" fill-opacity="1">
        <g id="homepage-copy" stroke="#ffffff" stroke-opacity="1" fill="#ffffff" fill-opacity="1">
            <g id="Group-18" stroke="#ffffff" stroke-opacity="1" fill="#ffffff" fill-opacity="1">
                <g id="Group-6" stroke="#ffffff" stroke-opacity="1" fill="#ffffff" fill-opacity="1">
                    <g id="Group-17" stroke="#ffffff" stroke-opacity="1" fill="#ffffff" fill-opacity="1">
                        <g id="Group-5" stroke="#ffffff" stroke-opacity="1" fill="#ffffff" fill-opacity="1">
                            <g id="radio_big" transform="translate(53,42.34477615356445) scale(-1,1) translate(-53,-42.34477615356445) translate(0,20.844778060913086) " stroke="#ffffff" stroke-opacity="1" fill="#ffffff" fill-opacity="1">
                                <g id="Group-3" stroke="#ffffff" stroke-opacity="1" fill="#ffffff" fill-opacity="1">
                                    <mask id="mask-2" fill="white" transform="translate(0,2.08138108253479) translate(-336,1284) translate(336,-1304) ">
                                        <use xlink:href="#path-1" id="svg_1"/>
                                    </mask>
                                    <g id="Clip-2" opacity="0.500226449" stroke="#ffffff" stroke-opacity="1" fill="#ffffff" fill-opacity="1"/>
                                    <path d="M93.92126310000003,8.422077682534791 C92.32823439999999,4.914014582534719 88.79219330000001,2.4645354825347567 84.68592039999999,2.4645354825347567 C80.5781389,2.4645354825347567 77.04360639999999,4.914014582534719 75.4505777,8.422077682534791 L31.30437230000001,8.422077682534791 C29.71285210000002,4.914014582534719 26.17681110000001,2.4645354825347567 22.06902960000002,2.4645354825347567 C17.961248099999978,2.4645354825347567 14.425207100000023,4.914014582534719 12.83217830000001,8.422077682534791 L1.6960626900000193,8.422077682534791 C1.3958612600000038,7.519875382534792 1.2238865599999826,6.562037382534754 1.1861728200000243,5.568111182534722 L4.135387939999987,5.568111182534722 C4.458217629999979,5.568111182534722 4.719196769999996,5.30797628253481 4.719196769999996,4.986190782534777 C4.719196769999996,4.664405282534744 4.458217629999979,4.404270382534833 4.135387939999987,4.404270382534833 L1.1665616700000214,4.404270382534833 L1.1665616700000214,0.5804364825348785 L4.135387939999987,0.5804364825348785 C4.458217629999979,0.5804364825348785 4.719196769999996,0.3187978825346818 4.719196769999996,-0.0029876174651235488 C4.719196769999996,-0.3232694174650992 4.458217629999979,-0.5849080174652954 4.135387939999987,-0.5849080174652954 L1.1982412199999999,-0.5849080174652954 C1.2812114600000086,-1.8329545174651685 1.794118439999977,-2.993788017465249 2.7037740499999927,-3.8734352174651576 C3.6556690599999797,-4.7921778174652445 4.897205659999997,-5.292900017465172 6.241323659999978,-5.292900017465172 L6.4102812500000255,-5.289892717465136 L10.447160899999972,-5.3665799174652875 C10.970627700000023,-5.377105617465304 11.48655180000003,-5.519954317465135 11.942133899999988,-5.781592917465105 L26.384991000000014,-14.128467317465265 C29.02797049999998,-15.656196437465269 32.0420532,-16.46366743746512 35.101392499999974,-16.46366743746512 L49.29533889999999,-16.46366743746512 C56.37647229999999,-16.46366743746512 63.22378040000001,-14.378076597465224 69.09656540000003,-10.432445477465308 L78.9624819,-3.802762717465157 C79.8298982,-3.2960258174653063 80.81799839999996,-3.010328417465189 81.82269259999998,-2.972736617465216 L97.24761569999998,-2.4028455174652663 L97.2506328,-2.4028455174652663 C99.9041722,-2.317136317465156 102.17604799999998,-0.9036861174652131 103.47038399999997,1.183408382534708 L97.55535989999998,1.183408382534708 C97.23253019999999,1.183408382534708 96.9715511,1.443543282534847 96.9715511,1.7653287825348796 C96.9715511,2.087114282534685 97.23253019999999,2.345745582534846 97.55535989999998,2.345745582534846 L104.069279,2.345745582534846 C104.419262,3.222385382534867 104.61839099999997,4.175712482534891 104.61839099999997,5.180164282534861 C104.61839099999997,6.3124280825347805 104.428313,7.4010854825348815 104.087381,8.422077682534791 L93.92126310000003,8.422077682534791 zM94.384388,15.516394582534758 C94.6695039,14.585622582534825 94.82639310000002,13.596207482534737 94.82639310000002,12.572207982534792 C94.82639310000002,11.533171682534885 94.66648680000003,10.530223582534745 94.37382809999997,9.58591848253468 L103.615205,9.58591848253468 C101.97088600000001,13.048871482534878 98.46199839999997,15.460758782534867 94.384388,15.516394582534758 L94.384388,15.516394582534758 zM93.11720600000001,15.523912882534887 C92.97389379999998,15.928400282534767 92.80191910000002,16.31333988253482 92.60429899999997,16.689257482534686 C91.10480039999999,19.543223882534676 88.13748270000002,21.51603948253478 84.68592039999999,21.51603948253478 C81.23435810000001,21.51603948253478 78.26704039999998,19.543223882534676 76.7675418,16.689257482534686 C76.56992170000001,16.31333988253482 76.39794699999999,15.928400282534767 76.25463480000002,15.523912882534887 C75.92577089999997,14.594644582534784 75.7130654,13.612747882534677 75.7130654,12.572207982534792 C75.7130654,11.52114228253481 75.928788,10.5257124825348 76.2651947,9.58591848253468 C76.41152399999999,9.18143118253488 76.58651580000003,8.797995282534885 76.78564440000002,8.422077682534791 C78.29268580000002,5.586155282534719 81.2494436,3.628376382534725 84.68592039999999,3.628376382534725 C88.12239720000002,3.628376382534725 91.07915500000001,5.586155282534719 92.5846879,8.422077682534791 C92.785325,8.797995282534885 92.96031679999999,9.18143118253488 93.1066462,9.58591848253468 C93.44305280000003,10.5257124825348 93.65877539999997,11.52114228253481 93.65877539999997,12.572207982534792 C93.65877539999997,13.612747882534677 93.4460699,14.594644582534784 93.11720600000001,15.523912882534887 L93.11720600000001,15.523912882534887 zM74.9889614,15.523912882534887 L31.765988600000014,15.523912882534887 C32.05110450000001,14.59013358253469 32.2095023,13.599214782534773 32.2095023,12.572207982534792 C32.2095023,11.533171682534885 32.04959600000001,10.530223582534745 31.756937300000004,9.58591848253468 L74.9980127,9.58591848253468 C74.705354,10.530223582534745 74.54544770000001,11.533171682534885 74.54544770000001,12.572207982534792 C74.54544770000001,13.599214782534773 74.7038455,14.59013358253469 74.9889614,15.523912882534887 L74.9889614,15.523912882534887 zM30.50031519999999,15.523912882534887 C30.35700300000002,15.928400282534767 30.1865368,16.31333988253482 29.98891679999997,16.689257482534686 C28.487909600000023,19.543223882534676 25.5205919,21.51603948253478 22.06902960000002,21.51603948253478 C18.61897590000001,21.51603948253478 15.65014960000002,19.543223882534676 14.149142400000017,16.689257482534686 C13.951522399999988,16.31333988253482 13.779547700000023,15.928400282534767 13.636235399999975,15.523912882534887 C13.30737160000001,14.594644582534784 13.094666000000018,13.612747882534677 13.094666000000018,12.572207982534792 C13.094666000000018,11.52114228253481 13.310388699999976,10.5257124825348 13.648303800000008,9.58591848253468 C13.793124599999999,9.18143118253488 13.968116399999985,8.797995282534885 14.168753600000002,8.422077682534791 C15.675794999999994,5.586155282534719 18.632552799999985,3.628376382534725 22.06902960000002,3.628376382534725 C25.5055064,3.628376382534725 28.462264199999993,5.586155282534719 29.969305599999984,8.422077682534791 C30.16843419999998,8.797995282534885 30.343426000000022,9.18143118253488 30.48975539999998,9.58591848253468 C30.82616200000001,10.5257124825348 31.041884600000003,11.52114228253481 31.041884600000003,12.572207982534792 C31.041884600000003,13.612747882534677 30.829179099999976,14.594644582534784 30.50031519999999,15.523912882534887 L30.50031519999999,15.523912882534887 zM12.372070600000031,15.523912882534887 L11.54689380000002,15.523912882534887 C7.404415659999984,15.523912882534887 3.8336779599999886,13.089470582534886 2.1697473799999902,9.58591848253468 L12.381121899999982,9.58591848253468 C12.086954699999978,10.530223582534745 11.92704839999999,11.533171682534885 11.92704839999999,12.572207982534792 C11.92704839999999,13.599214782534773 12.085446100000013,14.59013358253469 12.372070600000031,15.523912882534887 L12.372070600000031,15.523912882534887 zM97.28985510000001,-3.5651828174652564 L81.86644060000003,-4.135073817465127 C81.0548407,-4.165147217465119 80.2538007,-4.398216217465233 79.58400449999999,-4.787666817465151 L69.74976750000002,-11.396298197465285 C63.68388820000001,-15.472748647465323 56.611806100000024,-17.627508328465183 49.29533889999999,-17.627508328465183 L35.101392499999974,-17.627508328465183 C31.83839899999998,-17.627508328465183 28.62217049999998,-16.76590518746525 25.798164999999983,-15.134422807465171 L11.35832499999998,-6.789052117465189 C11.074717700000008,-6.626655717465155 10.751888000000008,-6.536435517465179 10.42453260000002,-6.530420817465256 L6.416315450000013,-6.4537336174651045 C4.759927619999985,-6.515384117465146 3.1125910900000235,-5.889857217465305 1.8906656400000088,-4.70947591746517 C0.6717572869999915,-3.5321020174651485 0.00045256498100343395,-1.950240717465249 0.00045256498100343395,-0.2556042174651343 L0.00045256498100343395,5.180164282534861 C0.00045256498100343395,11.525653382534756 5.179304500000001,16.689257482534686 11.54689380000002,16.689257482534686 L12.815584300000012,16.689257482534686 C14.401070300000015,20.213860882534846 17.949179700000002,22.679880382534748 22.06902960000002,22.679880382534748 C26.190387999999984,22.679880382534748 29.73698890000003,20.213860882534846 31.320966399999975,16.689257482534686 L75.43398360000003,16.689257482534686 C77.01946959999998,20.213860882534846 80.56456200000002,22.679880382534748 84.68592039999999,22.679880382534748 C88.8057703,22.679880382534748 92.3523712,20.213860882534846 93.9378572,16.689257482534686 L94.23956720000001,16.689257482534686 C100.60564799999997,16.689257482534686 105.78449999999998,11.525653382534756 105.78449999999998,5.180164282534861 C105.78449999999998,0.4285657825348608 102.053856,-3.4118084174651813 97.28985510000001,-3.5651828174652564 L97.28985510000001,-3.5651828174652564 z" id="Fill-1" fill="#ffffff" mask="url(#mask-2)" stroke="#ffffff" stroke-opacity="1" fill-opacity="1"/>
                                </g>
                                <path d="M52.10018580000002,-4.354008799999974 C52.09566010000003,-4.376563799999985 52.0986772,-4.399118900000076 52.08962589999999,-4.420170300000109 L49.117782499999976,-12.86177588999999 L50.036489500000016,-12.86177588999999 C57.14326820000002,-12.86177588999999 64.04337559999999,-10.338616960000081 69.46510410000002,-5.7569332999999006 L71.91498919999998,-3.6908900999999332 L52.10018580000002,-4.354008799999974 zM31.06647399999997,-5.059230200000002 C30.030100199999993,-5.093814600000087 29.143072800000027,-5.707312100000081 28.747832700000004,-6.662142800000083 C28.34957559999998,-7.618477199999916 28.545686999999987,-8.683075899999949 29.35728690000002,-9.546182699999918 C31.334995900000024,-11.65282488999992 34.12128760000002,-12.86177588999999 36.998092299999996,-12.86177588999999 L47.8807716,-12.86177588999999 L50.863174800000024,-4.39611160000004 L31.06647399999997,-5.059230200000002 zM50.036489500000016,-14.025616780000064 L36.998092299999996,-14.025616780000064 C33.79845790000002,-14.025616780000064 30.7014049,-12.682839110000032 28.403883399999984,-10.236367369999925 C27.375052299999993,-9.141695300000038 27.09446200000002,-7.601936799999976 27.667710999999997,-6.217056400000047 C28.240959999999973,-4.835183299999926 29.527753099999984,-3.9465141000000585 31.0257431,-3.8953893000000335 L73.21988490000001,-2.4819391000000905 L73.2410046,-2.4819391000000905 C73.5502573,-2.4819391000000905 73.81576210000003,-2.675912599999947 73.90929219999998,-2.9706320000000233 L73.97717699999998,-3.4698505999999725 L70.22088759999997,-6.645602499999995 C64.58645360000003,-11.404719269999987 57.41933289999997,-14.025616780000064 50.036489500000016,-14.025616780000064 L50.036489500000016,-14.025616780000064 z" id="Fill-4" fill="#ffffff" stroke="#ffffff" stroke-opacity="1" fill-opacity="1"/>
                                <path d="M88.25228329999999,15.524213099999997 C87.85100899999998,16.00538770000003 87.35922170000003,16.400853000000097 86.79653259999998,16.688053999999966 C86.15992449999999,17.01435050000009 85.4509061,17.215842300000077 84.68607129999998,17.215842300000077 C83.9212364,17.215842300000077 83.21070939999998,17.01435050000009 82.5741013,16.688053999999966 C82.0114122,16.400853000000097 81.5196249,16.00538770000003 81.11835070000001,15.524213099999997 C80.44704590000003,14.719749500000034 80.0261605,13.700260999999955 80.0261605,12.572508199999902 C80.0261605,11.429718699999967 80.45911430000001,10.396697099999983 81.14701309999998,9.586218700000018 C81.5588472,9.10203690000003 82.06119439999998,8.706571599999961 82.63746040000001,8.422377899999901 C83.2574745,8.117132800000036 83.94688180000003,7.929174000000103 84.68607129999998,7.929174000000103 C85.42375219999997,7.929174000000103 86.1131595,8.117132800000036 86.73317350000002,8.422377899999901 C87.30943960000002,8.706571599999961 87.81178669999997,9.10203690000003 88.22362090000001,9.586218700000018 C88.91151960000002,10.396697099999983 89.34598199999999,11.429718699999967 89.34598199999999,12.572508199999902 C89.34598199999999,13.700260999999955 88.923588,14.719749500000034 88.25228329999999,15.524213099999997 M88.74859620000001,8.422377899999901 C87.6986455,7.399881999999934 86.2670316,6.763829400000077 84.68607129999998,6.763829400000077 C83.1051109,6.763829400000077 81.673497,7.399881999999934 80.62203770000002,8.422377899999901 C80.26903700000003,8.766718399999945 79.97336129999997,9.162183700000014 79.71539919999998,9.586218700000018 C79.18288110000003,10.46285859999989 78.86005139999997,11.477836100000104 78.86005139999997,12.572508199999902 C78.86005139999997,13.655150800000001 79.17684689999999,14.656595299999935 79.69578810000002,15.524213099999997 C79.94771589999999,15.946744500000023 80.23434040000001,16.34371349999992 80.58130690000002,16.688053999999966 C81.63427469999999,17.733105000000023 83.08549979999998,18.379683200000045 84.68607129999998,18.379683200000045 C86.28513420000002,18.379683200000045 87.73635919999998,17.733105000000023 88.78932709999998,16.688053999999966 C89.13780209999999,16.34371349999992 89.4229181,15.946744500000023 89.67484589999998,15.524213099999997 C90.19378710000001,14.656595299999935 90.51058260000002,13.655150800000001 90.51058260000002,12.572508199999902 C90.51058260000002,11.477836100000104 90.18775290000002,10.46285859999989 89.65674330000002,9.586218700000018 C89.3987813,9.162183700000014 89.1015969,8.766718399999945 88.74859620000001,8.422377899999901 " id="Fill-6" fill="#ffffff" stroke="#ffffff" stroke-opacity="1" fill-opacity="1"/>
                                <path d="M56.718611399999986,-0.06463860000008026 L53.69547729999999,-0.06463860000008026 C53.37264759999999,-0.06463860000008026 53.11166850000001,0.19549639999991086 53.11166850000001,0.5172818000000916 C53.11166850000001,0.8390672999998969 53.37264759999999,1.099202299999888 53.69547729999999,1.099202299999888 L56.718611399999986,1.099202299999888 C57.041441099999986,1.099202299999888 57.30242020000003,0.8390672999998969 57.30242020000003,0.5172818000000916 C57.30242020000003,0.19549639999991086 57.041441099999986,-0.06463860000008026 56.718611399999986,-0.06463860000008026 " id="Fill-8" fill="#ffffff" stroke="#ffffff" stroke-opacity="1" fill-opacity="1"/>
                                <rect id="Rectangle-10" stroke="#ffffff" x="45.5" y="-19.5" width="8" height="2.4734785556793213" rx="1.2367392778396606" stroke-opacity="1" fill="#ffffff" fill-opacity="1"/>
                                <path d="M34.197922000000005,-0.06463860000008026 L31.174787900000013,-0.06463860000008026 C30.851958200000013,-0.06463860000008026 30.590979100000027,0.19549639999991086 30.590979100000027,0.5172818000000916 C30.590979100000027,0.8390672999998969 30.851958200000013,1.099202299999888 31.174787900000013,1.099202299999888 L34.197922000000005,1.099202299999888 C34.52075159999998,1.099202299999888 34.78173079999999,0.8390672999998969 34.78173079999999,0.5172818000000916 C34.78173079999999,0.19549639999991086 34.52075159999998,-0.06463860000008026 34.197922000000005,-0.06463860000008026 " id="Fill-10" fill="#ffffff" stroke="#ffffff" stroke-opacity="1" fill-opacity="1"/>
                                <path d="M25.63569419999999,15.524213099999997 C25.234419899999978,16.00538770000003 24.7426327,16.400853000000097 24.1814521,16.688053999999966 C23.543335500000012,17.01435050000009 22.834317,17.215842300000077 22.06948219999998,17.215842300000077 C21.30615590000002,17.215842300000077 20.594120299999986,17.01435050000009 19.95751230000002,16.688053999999966 C19.393314599999997,16.400853000000097 18.903035799999998,16.00538770000003 18.50176160000001,15.524213099999997 C17.82894829999998,14.719749500000034 17.408062900000004,13.700260999999955 17.408062900000004,12.572508199999902 C17.408062900000004,11.429718699999967 17.84101670000001,10.396697099999983 18.530423999999982,9.586218700000018 C18.942258100000004,9.10203690000003 19.444605299999978,8.706571599999961 20.020871399999976,8.422377899999901 C20.640885400000002,8.117132800000036 21.330292699999973,7.929174000000103 22.06948219999998,7.929174000000103 C22.807163100000025,7.929174000000103 23.496570399999996,8.117132800000036 24.118092999999988,8.422377899999901 C24.69285050000002,8.706571599999961 25.196706199999994,9.10203690000003 25.607031800000016,9.586218700000018 C26.296439099999986,10.396697099999983 26.729392899999993,11.429718699999967 26.729392899999993,12.572508199999902 C26.729392899999993,13.700260999999955 26.306998899999996,14.719749500000034 25.63569419999999,15.524213099999997 M26.13200710000001,8.422377899999901 C25.0820564,7.399881999999934 23.650442499999997,6.763829400000077 22.06948219999998,6.763829400000077 C20.4885218,6.763829400000077 19.0569079,7.399881999999934 18.003940100000023,8.422377899999901 C17.65093939999997,8.766718399999945 17.3552636,9.162183700000014 17.09730159999998,9.586218700000018 C16.56478340000001,10.46285859999989 16.241953799999976,11.477836100000104 16.241953799999976,12.572508199999902 C16.241953799999976,13.655150800000001 16.558749200000022,14.656595299999935 17.077690399999994,15.524213099999997 C17.329618299999993,15.946744500000023 17.616242699999987,16.34371349999992 17.963209199999994,16.688053999999966 C19.017685599999993,17.733105000000023 20.467402100000015,18.379683200000045 22.06948219999998,18.379683200000045 C23.668545100000017,18.379683200000045 25.119770099999982,17.733105000000023 26.17273799999998,16.688053999999966 C26.52121299999999,16.34371349999992 26.806329000000005,15.946744500000023 27.05825679999998,15.524213099999997 C27.57719800000001,14.656595299999935 27.895502000000022,13.655150800000001 27.895502000000022,12.572508199999902 C27.895502000000022,11.477836100000104 27.571163800000022,10.46285859999989 27.040154200000018,9.586218700000018 C26.783700699999997,9.162183700000014 26.485007800000005,8.766718399999945 26.13200710000001,8.422377899999901 " id="Fill-12" fill="#ffffff" stroke="#ffffff" stroke-opacity="1" fill-opacity="1"/>
                            </g>
                        </g>
                    </g>
                </g>
            </g>
        </g>
    </g></g></svg>